<svg width="21" height="21" viewBox="0 0 21 21" fill="none" xmlns="http://www.w3.org/2000/svg">
<path d="M17.6699 0H2.75191C1.2321 0 0 1.23173 0 2.75119V17.6654C0 19.1848 1.23205 20.4166 2.75191 20.4166H10.1094L10.1219 13.1208H8.226C7.97961 13.1208 7.77963 12.9216 7.77868 12.6753L7.76959 10.3236C7.76864 10.0759 7.96922 9.87461 8.21696 9.87461H10.1094V7.60223C10.1094 4.96517 11.7204 3.52927 14.0735 3.52927H16.0043C16.2514 3.52927 16.4517 3.7295 16.4517 3.97652V5.95951C16.4517 6.20644 16.2515 6.40662 16.0046 6.40677L14.8196 6.40732C13.54 6.40732 13.2922 7.01524 13.2922 7.9074V9.87465H16.104C16.372 9.87465 16.5798 10.1085 16.5483 10.3745L16.2695 12.7263C16.2428 12.9513 16.0519 13.1209 15.8252 13.1209H13.3047L13.2922 20.4167H17.67C19.1898 20.4167 20.4219 19.1849 20.4219 17.6655V2.75119C20.4218 1.23173 19.1898 0 17.6699 0Z" fill="white"/>
</svg>
