<svg width="22" height="21" viewBox="0 0 22 21" fill="none" xmlns="http://www.w3.org/2000/svg">
<path d="M14.9411 0H6.68681C3.3322 0 0.603027 2.72848 0.603027 6.08224V14.3344C0.603027 17.6882 3.3322 20.4167 6.68681 20.4167H14.9411C18.2957 20.4167 21.0249 17.6882 21.0249 14.3344V6.08224C21.0249 2.72848 18.2957 0 14.9411 0ZM18.9705 14.3344C18.9705 16.5592 17.1664 18.3628 14.9411 18.3628H6.68681C4.46149 18.3628 2.65747 16.5592 2.65747 14.3344V6.08224C2.65747 3.85744 4.46149 2.05392 6.68681 2.05392H14.9411C17.1664 2.05392 18.9705 3.85744 18.9705 6.08224V14.3344Z" fill="white"/>
<path d="M10.8141 4.92786C7.90165 4.92786 5.53223 7.29667 5.53223 10.2083C5.53223 13.1199 7.90165 15.4888 10.8141 15.4888C13.7265 15.4888 16.0959 13.12 16.0959 10.2083C16.0959 7.29664 13.7265 4.92786 10.8141 4.92786ZM10.8141 13.4349C9.0316 13.4349 7.58667 11.9903 7.58667 10.2083C7.58667 8.42634 9.03164 6.98177 10.8141 6.98177C12.5965 6.98177 14.0414 8.42634 14.0414 10.2083C14.0414 11.9903 12.5965 13.4349 10.8141 13.4349Z" fill="white"/>
<path d="M16.1059 6.23282C16.8049 6.23282 17.3715 5.66634 17.3715 4.96754C17.3715 4.26875 16.8049 3.70227 16.1059 3.70227C15.407 3.70227 14.8403 4.26875 14.8403 4.96754C14.8403 5.66634 15.407 6.23282 16.1059 6.23282Z" fill="white"/>
</svg>
