<svg width="26" height="26" viewBox="0 0 26 26" fill="none" xmlns="http://www.w3.org/2000/svg">
<path d="M25.7751 24.6741L19.4553 18.3557C21.1506 16.4071 22.177 13.8647 22.177 11.086C22.177 4.9694 17.2007 0 11.0885 0C4.9705 0 0 4.97517 0 11.086C0 17.1969 4.97627 22.1721 11.0885 22.1721C13.8678 22.1721 16.4107 21.1459 18.3597 19.451L24.6795 25.7694C24.8295 25.9193 25.0313 26 25.2273 26C25.4234 26 25.6252 25.9251 25.7751 25.7694C26.075 25.4696 26.075 24.9738 25.7751 24.6741ZM1.55112 11.086C1.55112 5.82838 5.82967 1.55654 11.0827 1.55654C16.3415 1.55654 20.6143 5.83415 20.6143 11.086C20.6143 16.3379 16.3415 20.6213 11.0827 20.6213C5.82967 20.6213 1.55112 16.3437 1.55112 11.086Z" fill="#BDBDBD" fill-opacity="0.8"/>
</svg>
