<svg width="32" height="27" viewBox="0 0 32 27" fill="none" xmlns="http://www.w3.org/2000/svg">
<path d="M32 1.35C32 0.54 31.4667 0 30.6667 0H1.33333C0.533333 0 0 0.54 0 1.35V4.05C0 4.86 0.533333 5.4 1.33333 5.4H30.6667C31.4667 5.4 32 4.86 32 4.05V1.35Z" fill="white"/>
<path d="M22 12.15C22 11.34 21.6333 10.8 21.0833 10.8H0.916667C0.366667 10.8 0 11.34 0 12.15V14.85C0 15.66 0.366667 16.2 0.916667 16.2H21.0833C21.6333 16.2 22 15.66 22 14.85V12.15Z" fill="white"/>
<path d="M32 22.95C32 22.14 31.4667 21.6 30.6667 21.6H1.33333C0.533333 21.6 0 22.14 0 22.95V25.65C0 26.46 0.533333 27 1.33333 27H30.6667C31.4667 27 32 26.46 32 25.65V22.95Z" fill="white"/>
</svg>
