<svg width="26" height="21" viewBox="0 0 26 21" fill="none" xmlns="http://www.w3.org/2000/svg">
<path d="M24.8758 2.37509C24.3313 2.61692 23.7661 2.80769 23.1861 2.94581C23.8252 2.33757 24.3057 1.57679 24.5767 0.727626C24.6541 0.485204 24.3912 0.275575 24.1727 0.405373C23.3658 0.884712 22.4967 1.24431 21.5894 1.47428C21.5368 1.48763 21.4825 1.49439 21.428 1.49439C21.2627 1.49439 21.102 1.43293 20.9757 1.32138C20.0104 0.469285 18.7689 6.75712e-08 17.4799 6.75712e-08C16.9221 6.75712e-08 16.359 0.087071 15.8061 0.258819C14.093 0.790999 12.7711 2.20634 12.3564 3.95254C12.2008 4.60752 12.1587 5.26309 12.2311 5.90102C12.2394 5.97432 12.2049 6.02549 12.1835 6.04948C12.1461 6.09155 12.0929 6.11567 12.0378 6.11567C12.0316 6.11567 12.0253 6.11537 12.019 6.11477C8.26908 5.76583 4.88754 3.95637 2.49729 1.01978C2.3754 0.869991 2.14166 0.888363 2.04451 1.05526C1.57644 1.85955 1.32908 2.77945 1.32908 3.7155C1.32908 5.15005 1.90452 6.50195 2.90406 7.4875C2.48373 7.38768 2.0769 7.23048 1.69899 7.02025C1.51615 6.91852 1.2912 7.04927 1.28863 7.25872C1.26246 9.38984 2.50822 11.2861 4.37442 12.14C4.33683 12.1409 4.29925 12.1413 4.26161 12.1413C3.96579 12.1413 3.66627 12.1127 3.37147 12.0563C3.16558 12.0169 2.99261 12.2126 3.05654 12.4125C3.66227 14.3066 5.29054 15.7027 7.23907 16.0197C5.62191 17.107 3.73869 17.6805 1.77863 17.6805L1.16758 17.6801C0.979311 17.6801 0.820081 17.803 0.772102 17.9857C0.724841 18.1656 0.811895 18.3553 0.97244 18.4489C3.18111 19.7363 5.70042 20.4167 8.2591 20.4167C10.4988 20.4167 12.5938 19.9715 14.4861 19.0936C16.2207 18.2888 17.7537 17.1383 19.0422 15.6741C20.2426 14.3102 21.1812 12.7357 21.832 10.9944C22.4524 9.33454 22.7803 7.56344 22.7803 5.87253V5.79198C22.7802 5.52048 22.9028 5.26501 23.1167 5.09111C23.9284 4.43104 24.6352 3.65405 25.2175 2.78172C25.3712 2.55139 25.1287 2.26271 24.8758 2.37509Z" fill="white"/>
</svg>
